<svg xmlns="http://www.w3.org/2000/svg" viewBox="-38.200 -33.200 506.400 436.400"><g transform="translate(0.0000,0.0000) scale(1.000000) translate(-4.0000,-9.0000)"><path d="M 274.000 9.000 L 274.000 16.000 L 413.643 16.000 L 335.117 147.000 L 343.278 147.000 L 426.000 9.000 L 274.000 9.000 Z M 215.000 347.385 L 157.224 251.000 L 149.062 251.000 L 215.000 361.000 L 280.938 251.000 L 272.776 251.000 L 215.000 347.385 Z M 16.357 16.000 L 156.000 16.000 L 156.000 9.000 L 4.000 9.000 L 86.722 147.000 L 94.883 147.000 L 16.357 16.000 Z " fill="#FFFFFF"/><path d="M 171.000 136.000 a 44.000 44.000 0 1 0 88.000 0 a 44.000 44.000 0 1 0 -88.000 0 Z " fill="#FFFFFF"/></g></svg>